HIERARCHY
ROOT Hips
{
	OFFSET	0.00	0.00	0.00
	CHANNELS 6 Xposition Yposition Zposition Zrotation Xrotation Yrotation
	JOINT LeftUpLeg
	{
		OFFSET	 0.126116	-0.014019	-0.065224
		CHANNELS 3 Zrotation Xrotation Yrotation
		JOINT LeftLeg
		{
			OFFSET	 0.000000	 0.000000	 0.569914
			CHANNELS 3 Zrotation Xrotation Yrotation
			JOINT LeftFoot
			{
				OFFSET	 0.000000	 0.000000	 0.544423
				CHANNELS 3 Zrotation Xrotation Yrotation
				JOINT LeftToeBase
				{
					OFFSET	 0.000000	 0.000000	 0.207117
					CHANNELS 3 Zrotation Xrotation Yrotation
					End Site
					{
						OFFSET	 0.000000	 0.000000	 0.207117
					}
				}
			}
		}
	}
	JOINT RightUpLeg
	{
		OFFSET	-0.124023	-0.008373	-0.065224
		CHANNELS 3 Zrotation Xrotation Yrotation
		JOINT RightLeg
		{
			OFFSET	 0.000000	 0.000000	 0.570047
			CHANNELS 3 Zrotation Xrotation Yrotation
			JOINT RightFoot
			{
				OFFSET	 0.000000	 0.000000	 0.544354
				CHANNELS 3 Zrotation Xrotation Yrotation
				JOINT RightToeBase
				{
					OFFSET	 0.000000	 0.000000	 0.207540
					CHANNELS 3 Zrotation Xrotation Yrotation
					End Site
					{
						OFFSET	 0.000000	 0.000000	 0.207540
					}
				}
			}
		}
	}
	JOINT Spine
	{
		OFFSET	 0.000184	-0.007763	 0.117403
		CHANNELS 3 Zrotation Xrotation Yrotation
		JOINT Spine1
		{
			OFFSET	 0.000000	 0.000000	 0.137269
			CHANNELS 3 Zrotation Xrotation Yrotation
			JOINT Spine2
			{
				OFFSET	 0.000000	 0.000000	 0.156879
				CHANNELS 3 Zrotation Xrotation Yrotation
				JOINT LeftShoulder
				{
					OFFSET	 0.080501	-0.002496	 0.160144
					CHANNELS 3 Zrotation Xrotation Yrotation
					JOINT LeftArm
					{
						OFFSET	 0.000000	 0.000000	 0.164363
						CHANNELS 3 Zrotation Xrotation Yrotation
						JOINT LeftForeArm
						{
							OFFSET	 0.000000	 0.000000	 0.364576
							CHANNELS 3 Zrotation Xrotation Yrotation
							JOINT LeftHand
							{
								OFFSET	 0.000000	 0.000000	 0.360812
								CHANNELS 3 Zrotation Xrotation Yrotation
								JOINT LeftHandIndex1
								{
									OFFSET	 0.000000	 0.000000	 0.086006
									CHANNELS 3 Zrotation Xrotation Yrotation
									JOINT LeftHandIndex2
									{
										OFFSET	 0.000000	 0.000000	 0.047236
										CHANNELS 3 Zrotation Xrotation Yrotation
										JOINT LeftHandIndex3
										{
											OFFSET	-0.004284	-0.000551	 0.038166
											CHANNELS 3 Zrotation Xrotation Yrotation
											End Site
											{
												OFFSET	-0.004284	-0.000551	 0.038166
											}
										}
									}
								}
							}
						}
					}
				}
				JOINT Neck
				{
					OFFSET	 0.000000	 0.000000	 0.176489
					CHANNELS 3 Zrotation Xrotation Yrotation
					JOINT Head
					{
						OFFSET	 0.000000	-0.001747	 0.077940
						CHANNELS 3 Zrotation Xrotation Yrotation
						End Site
						{
							OFFSET	 0.000000	-0.001747	 0.077940
						}
					}
				}
				JOINT RightShoulder
				{
					OFFSET	-0.080363	 0.000306	 0.159706
					CHANNELS 3 Zrotation Xrotation Yrotation
					JOINT RightArm
					{
						OFFSET	 0.000000	 0.000000	 0.164196
						CHANNELS 3 Zrotation Xrotation Yrotation
						JOINT RightForeArm
						{
							OFFSET	 0.000000	 0.000000	 0.365611
							CHANNELS 3 Zrotation Xrotation Yrotation
							JOINT RightHand
							{
								OFFSET	 0.000000	 0.000000	 0.360648
								CHANNELS 3 Zrotation Xrotation Yrotation
								JOINT RightHandIndex1
								{
									OFFSET	 0.000000	 0.000000	 0.069977
									CHANNELS 3 Zrotation Xrotation Yrotation
									JOINT RightHandIndex2
									{
										OFFSET	 0.000000	 0.000000	 0.052305
										CHANNELS 3 Zrotation Xrotation Yrotation
										JOINT RightHandIndex3
										{
											OFFSET	 0.009002	-0.000782	 0.042196
											CHANNELS 3 Zrotation Xrotation Yrotation
											End Site
											{
												OFFSET	 0.009002	-0.000782	 0.042196
											}
										}
									}
								}
							}
						}
					}
				}
			}
		}
	}
}
MOTION
Frames:    8
Frame Time: 0.03333334
-5.438012	-17.775820	 0.050884	-37.390060	 8.515789	 1.752322	 4.560594	-21.969410	 173.709000	-1.629738	-41.827570	-0.250617	 0.055185	 85.508480	-0.563525	-2.385914	 28.433570	 0.000418	-2.531142	-22.804980	-178.744200	-0.119021	-42.830700	 0.027325	-0.337002	 86.508400	 0.608116	 2.407684	 17.318690	-0.225844	-1.338887	 9.551230	-0.272045	-1.670871	 7.737261	-2.436017	-1.831303	 5.190438	-0.038208	-126.085200	 89.578960	-143.255900	 65.706820	 61.723350	-88.348640	-5.481522	-4.660500	-22.055120	 6.792474	-2.201753	-5.334503	-3.812334	 37.924440	-2.927599	-2.450526	 36.184240	 0.754587	-1.378229	 35.397820	-2.634230	 0.466609	 3.149785	-0.658772	 0.146899	 8.098034	-0.074056	 94.364130	 86.809970	 172.045000	-65.726320	 73.810990	 81.893690	-3.352696	-15.247950	 26.991750	-27.221100	-3.187124	 9.583652	 6.437017	 35.671460	-0.771858	 2.830251	 35.756010	-7.813440	-2.350882	 35.473990	 5.254307
-5.434340	-17.771800	 0.051237	-37.416700	 8.033545	 1.704470	 4.528907	-22.075540	 174.179900	-1.664314	-40.066010	-0.205248	 0.097120	 84.649760	-0.578306	-2.385781	 28.462530	-0.000209	-2.473907	-22.959120	-178.756500	-0.125953	-40.947010	 0.001542	-0.233142	 85.571140	 0.478948	 2.407688	 17.358210	-0.225075	-1.379581	 9.116801	-0.300386	-1.742075	 7.049475	-2.292800	-1.861795	 4.637844	-0.047850	-115.654500	 89.398340	-153.571800	 56.088150	 59.932690	-78.208020	-3.632463	-4.403022	-20.812140	 6.630064	-2.197694	-5.336363	-3.812334	 37.924440	-2.927599	-2.450526	 36.184240	 0.754587	-1.378229	 35.397820	-2.634230	 0.457554	 2.644310	-0.641370	 0.083521	 7.573699	-0.036393	 94.720860	 86.908950	 171.579500	-53.495860	 70.250410	 71.727810	-3.212978	-12.994890	 25.822320	-24.077780	-3.187076	 9.584076	 6.437017	 35.671460	-0.771858	 2.830251	 35.756010	-7.813440	-2.350882	 35.473990	 5.254307
-5.433773	-17.771670	 0.052225	-37.433700	 8.051479	 1.765680	 4.524078	-22.231860	 174.144400	-1.701162	-40.375080	-0.240098	 0.117039	 84.752560	-0.633704	-2.385703	 28.481880	-0.000628	-2.461572	-23.117980	-178.764100	-0.100908	-41.180740	 0.030752	-0.355715	 85.659360	 0.636465	 2.407683	 17.592760	-0.220496	-1.381007	 9.168646	-0.354315	-1.741560	 7.018955	-2.314396	-1.864647	 4.593452	-0.048650	-115.663600	 89.395100	-153.549500	 55.947570	 59.553780	-78.043910	-3.648639	-4.295328	-21.069320	 6.230283	-2.196180	-5.338714	-3.812334	 37.924440	-2.927599	-2.450526	 36.184240	 0.754587	-1.378229	 35.397820	-2.634230	 0.452164	 2.585025	-0.610049	 0.085340	 7.546197	-0.080990	 94.718500	 86.899220	 171.568400	-53.423910	 69.977260	 71.802760	-3.212586	-12.965660	 25.980710	-23.892640	-3.186858	 9.584654	 6.437017	 35.671460	-0.771858	 2.830251	 35.756010	-7.813440	-2.350882	 35.473990	 5.254307
-5.433180	-17.771350	 0.051340	-37.447300	 8.045009	 1.804777	 4.499032	-22.435410	 174.102300	-1.742490	-40.716410	-0.290120	 0.058137	 84.861150	-0.624034	-2.385513	 28.526590	-0.001585	-2.444619	-23.291760	-178.769400	-0.083095	-41.453830	 0.059383	-0.484577	 85.750890	 0.797829	 2.407675	 17.759150	-0.217242	-1.380000	 9.233408	-0.388534	-1.741134	 6.987085	-2.333472	-1.869365	 4.544622	-0.049569	-115.509900	 89.387380	-153.685300	 55.762420	 59.117210	-77.859550	-3.652766	-4.176970	-21.356600	 5.798699	-2.193167	-5.341706	-3.812334	 37.924440	-2.927599	-2.450526	 36.184240	 0.754587	-1.378229	 35.397820	-2.634230	 0.443241	 2.499647	-0.589315	 0.085561	 7.534951	-0.128493	 94.722760	 86.891970	 171.550400	-53.307060	 69.656620	 71.857160	-3.231665	-12.962940	 26.203340	-23.707810	-3.186323	 9.585604	 6.437017	 35.671460	-0.771858	 2.830251	 35.756010	-7.813440	-2.350882	 35.473990	 5.254307
-5.432409	-17.770950	 0.050335	-37.469090	 8.034829	 1.824818	 4.506911	-22.703700	 174.076900	-1.769018	-41.075040	-0.309535	 0.152918	 84.970520	-0.734696	-2.385288	 28.574250	-0.002626	-2.431127	-23.482090	-178.756300	-0.069245	-41.753840	 0.085121	-0.614946	 85.842210	 0.955874	 2.407660	 17.899390	-0.214497	-1.374078	 9.307759	-0.408700	-1.737646	 6.953090	-2.347558	-1.875817	 4.492656	-0.050595	-115.256700	 89.376930	-153.915200	 55.539370	 58.684300	-77.679270	-3.669398	-4.062785	-21.664930	 5.380610	-2.188090	-5.344853	-3.812334	 37.924440	-2.927599	-2.450526	 36.184240	 0.754587	-1.378229	 35.397820	-2.634230	 0.433935	 2.398448	-0.575787	 0.081376	 7.533568	-0.166424	 94.731120	 86.886240	 171.527100	-53.138400	 69.320130	 71.867800	-3.259176	-12.982740	 26.469940	-23.533210	-3.185346	 9.586961	 6.437017	 35.671460	-0.771858	 2.830251	 35.756010	-7.813440	-2.350882	 35.473990	 5.254307
-5.431375	-17.770390	 0.049037	-37.507570	 8.040154	 1.833380	 4.529047	-23.041770	 174.052900	-1.804431	-41.523710	-0.327591	 0.266543	 85.103310	-0.860054	-2.385154	 28.603970	-0.003268	-2.420218	-23.739300	-178.723800	-0.056891	-42.143800	 0.111799	-0.770904	 85.951900	 1.138270	 2.407629	 18.052410	-0.211494	-1.362321	 9.407368	-0.420415	-1.733609	 6.907766	-2.356207	-1.887134	 4.425745	-0.052004	-114.896000	 89.359580	-154.240100	 55.221590	 58.220020	-77.472640	-3.592603	-3.997216	-22.052500	 5.073065	-2.180345	-5.348130	-3.812334	 37.924440	-2.927599	-2.450526	 36.184240	 0.754587	-1.378229	 35.397820	-2.634230	 0.421406	 2.265831	-0.567947	 0.069275	 7.536081	-0.180482	 94.745780	 86.879460	 171.491700	-52.873730	 68.915350	 71.824230	-3.291107	-13.028370	 26.829030	-23.338350	-3.183818	 9.589088	 6.437017	 35.671460	-0.771858	 2.830251	 35.756010	-7.813440	-2.350882	 35.473990	 5.254307
-5.430339	-17.769720	 0.047668	-37.550360	 8.059900	 1.841812	 4.563642	-23.357920	 174.033800	-1.841086	-41.986300	-0.339906	 0.378013	 85.237040	-0.975592	-2.385067	 28.624470	-0.003717	-2.411041	-24.027810	-178.692400	-0.052608	-42.558690	 0.132588	-0.925993	 86.061390	 1.311505	 2.407593	 18.204160	-0.208528	-1.352482	 9.516079	-0.426747	-1.732207	 6.857523	-2.362701	-1.901467	 4.354880	-0.053577	-114.517900	 89.340320	-154.576800	 54.852010	 57.852580	-77.274180	-3.416231	-4.024295	-22.455700	 5.007865	-2.171877	-5.350379	-3.812334	 37.924440	-2.927599	-2.450526	 36.184240	 0.754587	-1.378229	 35.397820	-2.634230	 0.406978	 2.129770	-0.560742	 0.053296	 7.535907	-0.174462	 94.762840	 86.871500	 171.450300	-52.576630	 68.517630	 71.771680	-3.312292	-13.090330	 27.212630	-23.160960	-3.196234	 9.575052	 6.437017	 35.671460	-0.771858	 2.830251	 35.756010	-7.813440	-2.350882	 35.473990	 5.254307
-5.429147	-17.768890	 0.046086	-37.598180	 8.087773	 1.851117	 4.612308	-23.703690	 174.018400	-1.885608	-42.506600	-0.349963	 0.496087	 85.385140	-1.093462	-2.384940	 28.651020	-0.004291	-2.401075	-24.381640	-178.658300	-0.059465	-43.036930	 0.147923	-1.094619	 86.182020	 1.490376	 2.407541	 18.382130	-0.205030	-1.344519	 9.643844	-0.436500	-1.733030	 6.796589	-2.369841	-1.914256	 4.273177	-0.055307	-114.076800	 89.319300	-154.977000	 54.419040	 57.512450	-77.086310	-3.185201	-4.111172	-22.922950	 5.074995	-2.162493	-5.352250	-3.812334	 37.924440	-2.927599	-2.450526	 36.184240	 0.754587	-1.378229	 35.397820	-2.634230	 0.392722	 1.982726	-0.549951	 0.040403	 7.527318	-0.154371	 94.782860	 86.860630	 171.398900	-52.235670	 68.094630	 71.735140	-3.316828	-13.170210	 27.647530	-22.982520	-3.193670	 9.578490	 6.437017	 35.671460	-0.771858	 2.830251	 35.756010	-7.813440	-2.350882	 35.473990	 5.254307
